<svg width="1255" height="225" viewBox="0 0 1255 225" fill="none" xmlns="http://www.w3.org/2000/svg">
<path d="M98.0647 25.4453L67.5334 136.423C66.1281 141.531 58.3984 140.542 58.3984 135.254V20.367C58.3984 9.5226 67.4317 0.731445 78.5748 0.731445C91.8396 0.731445 101.495 12.9752 98.0647 25.4453Z" fill="white"/>
<path d="M153.259 82.109L81.6818 148.875C77.9435 152.362 72.1971 147.894 74.7369 143.475L123.365 58.8647C129.178 48.7499 142.697 46.0866 151.943 53.2346C161.224 60.409 161.848 74.0979 153.259 82.109Z" fill="white"/>
<path d="M144.201 166.691L89.8826 166.691C85.0838 166.691 83.5566 160.014 87.8488 157.799L136.433 132.725C147.982 126.764 161.571 135.433 161.571 148.762C161.571 158.664 153.794 166.691 144.201 166.691Z" fill="white"/>
<path fill-rule="evenodd" clip-rule="evenodd" d="M15.8186 0.731446C24.4878 0.731446 31.5156 7.76008 31.5156 16.4303L31.5156 209.303C31.5156 217.973 24.4878 225.001 15.8186 225.001C7.14937 225.001 0.121568 217.973 0.121568 209.303L0.121559 16.4303C0.121559 7.76008 7.14936 0.731446 15.8186 0.731446Z" fill="white"/>
<path fill-rule="evenodd" clip-rule="evenodd" d="M161.578 209.304C161.578 217.974 154.55 225.002 145.881 225.002L15.82 225.002C7.15079 225.002 0.122978 217.974 0.122978 209.304C0.122978 200.633 7.15079 193.605 15.82 193.605L145.881 193.605C154.55 193.605 161.578 200.633 161.578 209.304Z" fill="white"/>
<path d="M231.902 179.21V66.6146H252.299V162.112H301.89V179.21H231.902ZM318.713 179.21V94.7634H338.615V179.21H318.713ZM328.719 82.7781C325.567 82.7781 322.855 81.7336 320.582 79.6444C318.31 77.5186 317.173 74.9713 317.173 72.0024C317.173 68.997 318.31 66.4497 320.582 64.3605C322.855 62.2347 325.567 61.1718 328.719 61.1718C331.908 61.1718 334.62 62.2347 336.856 64.3605C339.128 66.4497 340.264 68.997 340.264 72.0024C340.264 74.9713 339.128 77.5186 336.856 79.6444C334.62 81.7336 331.908 82.7781 328.719 82.7781ZM395.806 212.636C388.659 212.636 382.52 211.665 377.388 209.723C372.257 207.817 368.134 205.251 365.018 202.026C361.903 198.8 359.74 195.227 358.531 191.305L376.454 186.962C377.26 188.611 378.433 190.242 379.972 191.855C381.512 193.504 383.582 194.86 386.185 195.923C388.824 197.023 392.141 197.572 396.136 197.572C401.78 197.572 406.453 196.198 410.155 193.449C413.857 190.737 415.708 186.265 415.708 180.034V164.036H414.718C413.692 166.088 412.189 168.196 410.21 170.358C408.268 172.521 405.684 174.335 402.458 175.801C399.269 177.267 395.256 178 390.418 178C383.931 178 378.048 176.479 372.77 173.437C367.529 170.358 363.35 165.777 360.235 159.692C357.156 153.572 355.617 145.911 355.617 136.712C355.617 127.439 357.156 119.613 360.235 113.236C363.35 106.822 367.547 101.966 372.825 98.6668C378.103 95.3315 383.986 93.6638 390.473 93.6638C395.421 93.6638 399.489 94.5068 402.678 96.1928C405.904 97.8421 408.469 99.8397 410.375 102.185C412.281 104.494 413.729 106.675 414.718 108.728H415.818V94.7634H435.445V180.584C435.445 187.805 433.722 193.779 430.277 198.507C426.832 203.235 422.122 206.772 416.148 209.118C410.173 211.464 403.393 212.636 395.806 212.636ZM395.971 162.386C400.186 162.386 403.778 161.36 406.747 159.308C409.715 157.255 411.969 154.305 413.509 150.456C415.048 146.608 415.818 141.99 415.818 136.602C415.818 131.287 415.048 126.632 413.509 122.637C412.006 118.642 409.77 115.545 406.801 113.346C403.869 111.11 400.259 109.992 395.971 109.992C391.536 109.992 387.834 111.147 384.865 113.456C381.896 115.765 379.661 118.935 378.158 122.967C376.655 126.962 375.904 131.507 375.904 136.602C375.904 141.77 376.655 146.296 378.158 150.181C379.697 154.03 381.951 157.035 384.92 159.198C387.926 161.324 391.609 162.386 395.971 162.386ZM475.744 129.729V179.21H455.842V66.6146H475.304V109.113H476.294C478.273 104.348 481.333 100.591 485.475 97.8421C489.653 95.0566 494.968 93.6638 501.419 93.6638C507.283 93.6638 512.396 94.8917 516.758 97.3473C521.119 99.803 524.491 103.395 526.874 108.123C529.293 112.851 530.502 118.624 530.502 125.441V179.21H510.6V128.52C510.6 122.839 509.134 118.422 506.202 115.27C503.306 112.081 499.238 110.487 493.997 110.487C490.478 110.487 487.326 111.257 484.541 112.796C481.792 114.299 479.629 116.48 478.053 119.339C476.514 122.197 475.744 125.661 475.744 129.729ZM592.957 94.7634V110.157H544.412V94.7634H592.957ZM556.397 74.5314H576.299V153.81C576.299 156.485 576.702 158.538 577.508 159.967C578.351 161.36 579.451 162.313 580.807 162.826C582.163 163.339 583.666 163.596 585.315 163.596C586.562 163.596 587.698 163.504 588.724 163.321C589.787 163.138 590.593 162.973 591.143 162.826L594.497 178.385C593.434 178.752 591.913 179.155 589.933 179.595C587.991 180.034 585.609 180.291 582.786 180.364C577.802 180.511 573.312 179.759 569.317 178.11C565.322 176.424 562.151 173.822 559.806 170.303C557.496 166.785 556.36 162.386 556.397 157.109V74.5314ZM656.553 179.21V66.6146H694.598C703.431 66.6146 710.652 68.209 716.259 71.3977C721.904 74.5498 726.082 78.8197 728.794 84.2076C731.507 89.5954 732.863 95.6064 732.863 102.24C732.863 108.874 731.507 114.904 728.794 120.328C726.119 125.753 721.977 130.078 716.369 133.303C710.762 136.492 703.578 138.086 694.818 138.086H667.549V125.991H694.378C700.426 125.991 705.282 124.946 708.947 122.857C712.613 120.768 715.27 117.946 716.919 114.391C718.605 110.799 719.448 106.749 719.448 102.24C719.448 97.7322 718.605 93.7005 716.919 90.1452C715.27 86.59 712.594 83.8044 708.892 81.7885C705.19 79.736 700.279 78.7098 694.158 78.7098H670.188V179.21H656.553ZM753.067 179.21V94.7634H765.602V107.518H766.482C768.021 103.34 770.807 99.9496 774.839 97.3473C778.87 94.745 783.415 93.4439 788.473 93.4439C789.426 93.4439 790.617 93.4622 792.047 93.4989C793.476 93.5355 794.557 93.5905 795.29 93.6638V106.859C794.851 106.749 793.843 106.584 792.267 106.364C790.727 106.107 789.096 105.979 787.374 105.979C783.269 105.979 779.603 106.84 776.378 108.563C773.189 110.249 770.66 112.595 768.791 115.6C766.958 118.569 766.042 121.959 766.042 125.771V179.21H753.067ZM842.407 180.969C834.783 180.969 828.094 179.155 822.34 175.526C816.622 171.898 812.15 166.821 808.925 160.297C805.736 153.773 804.142 146.15 804.142 137.426C804.142 128.63 805.736 120.951 808.925 114.391C812.15 107.83 816.622 102.735 822.34 99.1066C828.094 95.4781 834.783 93.6638 842.407 93.6638C850.03 93.6638 856.701 95.4781 862.419 99.1066C868.173 102.735 872.645 107.83 875.833 114.391C879.059 120.951 880.671 128.63 880.671 137.426C880.671 146.15 879.059 153.773 875.833 160.297C872.645 166.821 868.173 171.898 862.419 175.526C856.701 179.155 850.03 180.969 842.407 180.969ZM842.407 169.314C848.198 169.314 852.962 167.829 856.701 164.86C860.439 161.892 863.207 157.988 865.003 153.15C866.799 148.312 867.697 143.071 867.697 137.426C867.697 131.782 866.799 126.522 865.003 121.648C863.207 116.773 860.439 112.833 856.701 109.827C852.962 106.822 848.198 105.319 842.407 105.319C836.616 105.319 831.851 106.822 828.112 109.827C824.374 112.833 821.607 116.773 819.811 121.648C818.015 126.522 817.117 131.782 817.117 137.426C817.117 143.071 818.015 148.312 819.811 153.15C821.607 157.988 824.374 161.892 828.112 164.86C831.851 167.829 836.616 169.314 842.407 169.314ZM937.203 94.7634V105.759H893.44V94.7634H937.203ZM906.195 74.5314H919.17V155.019C919.17 158.685 919.701 161.433 920.764 163.266C921.864 165.062 923.257 166.272 924.943 166.895C926.665 167.481 928.479 167.774 930.385 167.774C931.815 167.774 932.988 167.701 933.904 167.554C934.82 167.371 935.553 167.224 936.103 167.115L938.742 178.77C937.862 179.1 936.635 179.43 935.058 179.759C933.482 180.126 931.485 180.309 929.066 180.309C925.401 180.309 921.809 179.521 918.29 177.945C914.808 176.369 911.913 173.968 909.604 170.743C907.331 167.518 906.195 163.449 906.195 158.538V74.5314ZM990.119 180.969C982.495 180.969 975.806 179.155 970.052 175.526C964.334 171.898 959.863 166.821 956.637 160.297C953.449 153.773 951.854 146.15 951.854 137.426C951.854 128.63 953.449 120.951 956.637 114.391C959.863 107.83 964.334 102.735 970.052 99.1066C975.806 95.4781 982.495 93.6638 990.119 93.6638C997.743 93.6638 1004.41 95.4781 1010.13 99.1066C1015.89 102.735 1020.36 107.83 1023.55 114.391C1026.77 120.951 1028.38 128.63 1028.38 137.426C1028.38 146.15 1026.77 153.773 1023.55 160.297C1020.36 166.821 1015.89 171.898 1010.13 175.526C1004.41 179.155 997.743 180.969 990.119 180.969ZM990.119 169.314C995.91 169.314 1000.67 167.829 1004.41 164.86C1008.15 161.892 1010.92 157.988 1012.71 153.15C1014.51 148.312 1015.41 143.071 1015.41 137.426C1015.41 131.782 1014.51 126.522 1012.71 121.648C1010.92 116.773 1008.15 112.833 1004.41 109.827C1000.67 106.822 995.91 105.319 990.119 105.319C984.328 105.319 979.563 106.822 975.825 109.827C972.086 112.833 969.319 116.773 967.523 121.648C965.727 126.522 964.829 131.782 964.829 137.426C964.829 143.071 965.727 148.312 967.523 153.15C969.319 157.988 972.086 161.892 975.825 164.86C979.563 167.829 984.328 169.314 990.119 169.314ZM1082.5 180.969C1074.58 180.969 1067.76 179.1 1062.04 175.361C1056.33 171.623 1051.93 166.473 1048.85 159.912C1045.77 153.352 1044.23 145.856 1044.23 137.426C1044.23 128.85 1045.81 121.281 1048.96 114.72C1052.15 108.123 1056.58 102.973 1062.26 99.2716C1067.98 95.5331 1074.65 93.6638 1082.28 93.6638C1088.21 93.6638 1093.56 94.7634 1098.33 96.9625C1103.09 99.1616 1107 102.24 1110.04 106.199C1113.08 110.157 1114.97 114.775 1115.7 120.053H1102.73C1101.74 116.205 1099.54 112.796 1096.13 109.827C1092.76 106.822 1088.21 105.319 1082.5 105.319C1077.44 105.319 1073 106.639 1069.19 109.278C1065.42 111.88 1062.47 115.563 1060.34 120.328C1058.25 125.056 1057.21 130.609 1057.21 136.987C1057.21 143.511 1058.23 149.192 1060.28 154.03C1062.37 158.868 1065.31 162.625 1069.08 165.3C1072.89 167.976 1077.36 169.314 1082.5 169.314C1085.87 169.314 1088.93 168.727 1091.68 167.554C1094.43 166.381 1096.75 164.696 1098.66 162.496C1100.57 160.297 1101.92 157.658 1102.73 154.58H1115.7C1114.97 159.564 1113.16 164.054 1110.26 168.049C1107.4 172.008 1103.61 175.16 1098.88 177.505C1094.19 179.814 1088.73 180.969 1082.5 180.969ZM1168.98 180.969C1161.35 180.969 1154.66 179.155 1148.91 175.526C1143.19 171.898 1138.72 166.821 1135.49 160.297C1132.31 153.773 1130.71 146.15 1130.71 137.426C1130.71 128.63 1132.31 120.951 1135.49 114.391C1138.72 107.83 1143.19 102.735 1148.91 99.1066C1154.66 95.4781 1161.35 93.6638 1168.98 93.6638C1176.6 93.6638 1183.27 95.4781 1188.99 99.1066C1194.74 102.735 1199.21 107.83 1202.4 114.391C1205.63 120.951 1207.24 128.63 1207.24 137.426C1207.24 146.15 1205.63 153.773 1202.4 160.297C1199.21 166.821 1194.74 171.898 1188.99 175.526C1183.27 179.155 1176.6 180.969 1168.98 180.969ZM1168.98 169.314C1174.77 169.314 1179.53 167.829 1183.27 164.86C1187.01 161.892 1189.78 157.988 1191.57 153.15C1193.37 148.312 1194.27 143.071 1194.27 137.426C1194.27 131.782 1193.37 126.522 1191.57 121.648C1189.78 116.773 1187.01 112.833 1183.27 109.827C1179.53 106.822 1174.77 105.319 1168.98 105.319C1163.19 105.319 1158.42 106.822 1154.68 109.827C1150.94 112.833 1148.18 116.773 1146.38 121.648C1144.58 126.522 1143.69 131.782 1143.69 137.426C1143.69 143.071 1144.58 148.312 1146.38 153.15C1148.18 157.988 1150.94 161.892 1154.68 164.86C1158.42 167.829 1163.19 169.314 1168.98 169.314ZM1240.02 66.6146V179.21H1227.05V66.6146H1240.02Z" fill="white"/>
</svg>
